<svg xmlns="http://www.w3.org/2000/svg" width="190" height="20" viewBox="0 0 190 20">
  <g id="Group_2268" data-name="Group 2268" transform="translate(-814 -742)">
    <rect id="Rectangle_827" data-name="Rectangle 827" width="2" height="6" rx="1" transform="translate(814 749)" fill="#030308"/>
    <rect id="Rectangle_863" data-name="Rectangle 863" width="2" height="6" rx="1" transform="translate(910 749)" fill="#afafaf"/>
    <rect id="Rectangle_839" data-name="Rectangle 839" width="2" height="6" rx="1" transform="translate(862 749)" fill="#030308"/>
    <rect id="Rectangle_842" data-name="Rectangle 842" width="2" height="6" rx="1" transform="translate(958 749)" fill="#afafaf"/>
    <rect id="Rectangle_827-2" data-name="Rectangle 827" width="2" height="15" rx="1" transform="translate(818 745)" fill="#030308"/>
    <rect id="Rectangle_862" data-name="Rectangle 862" width="2" height="15" rx="1" transform="translate(914 745)" fill="#afafaf"/>
    <rect id="Rectangle_830" data-name="Rectangle 830" width="2" height="15" rx="1" transform="translate(866 745)" fill="#030308"/>
    <rect id="Rectangle_843" data-name="Rectangle 843" width="2" height="15" rx="1" transform="translate(962 745)" fill="#afafaf"/>
    <rect id="Rectangle_827-3" data-name="Rectangle 827" width="2" height="11" rx="1" transform="translate(822 747)" fill="#030308"/>
    <rect id="Rectangle_861" data-name="Rectangle 861" width="2" height="11" rx="1" transform="translate(918 747)" fill="#afafaf"/>
    <rect id="Rectangle_831" data-name="Rectangle 831" width="2" height="11" rx="1" transform="translate(870 747)" fill="#030308"/>
    <rect id="Rectangle_844" data-name="Rectangle 844" width="2" height="11" rx="1" transform="translate(966 747)" fill="#afafaf"/>
    <rect id="Rectangle_827-4" data-name="Rectangle 827" width="2" height="20" rx="1" transform="translate(826 742)" fill="#030308"/>
    <rect id="Rectangle_860" data-name="Rectangle 860" width="2" height="20" rx="1" transform="translate(922 742)" fill="#afafaf"/>
    <rect id="Rectangle_832" data-name="Rectangle 832" width="2" height="20" rx="1" transform="translate(874 742)" fill="#030308"/>
    <rect id="Rectangle_845" data-name="Rectangle 845" width="2" height="20" rx="1" transform="translate(970 742)" fill="#afafaf"/>
    <rect id="Rectangle_827-5" data-name="Rectangle 827" width="2" height="4" rx="1" transform="translate(830 750)" fill="#030308"/>
    <rect id="Rectangle_859" data-name="Rectangle 859" width="2" height="4" rx="1" transform="translate(926 750)" fill="#afafaf"/>
    <rect id="Rectangle_833" data-name="Rectangle 833" width="2" height="4" rx="1" transform="translate(878 750)" fill="#afafaf"/>
    <rect id="Rectangle_846" data-name="Rectangle 846" width="2" height="4" rx="1" transform="translate(974 750)" fill="#afafaf"/>
    <rect id="Rectangle_827-6" data-name="Rectangle 827" width="2" height="16" rx="1" transform="translate(834 744)" fill="#030308"/>
    <rect id="Rectangle_856" data-name="Rectangle 856" width="2" height="16" rx="1" transform="translate(930 744)" fill="#afafaf"/>
    <rect id="Rectangle_834" data-name="Rectangle 834" width="2" height="16" rx="1" transform="translate(882 744)" fill="#afafaf"/>
    <rect id="Rectangle_847" data-name="Rectangle 847" width="2" height="16" rx="1" transform="translate(978 744)" fill="#afafaf"/>
    <rect id="Rectangle_827-7" data-name="Rectangle 827" width="2" height="20" rx="1" transform="translate(838 742)" fill="#030308"/>
    <rect id="Rectangle_857" data-name="Rectangle 857" width="2" height="20" rx="1" transform="translate(934 742)" fill="#afafaf"/>
    <rect id="Rectangle_835" data-name="Rectangle 835" width="2" height="20" rx="1" transform="translate(886 742)" fill="#afafaf"/>
    <rect id="Rectangle_848" data-name="Rectangle 848" width="2" height="20" rx="1" transform="translate(982 742)" fill="#afafaf"/>
    <rect id="Rectangle_827-8" data-name="Rectangle 827" width="2" height="18" rx="1" transform="translate(842 743)" fill="#030308"/>
    <rect id="Rectangle_858" data-name="Rectangle 858" width="2" height="18" rx="1" transform="translate(938 743)" fill="#afafaf"/>
    <rect id="Rectangle_836" data-name="Rectangle 836" width="2" height="18" rx="1" transform="translate(890 743)" fill="#afafaf"/>
    <rect id="Rectangle_849" data-name="Rectangle 849" width="2" height="18" rx="1" transform="translate(986 743)" fill="#afafaf"/>
    <rect id="Rectangle_827-9" data-name="Rectangle 827" width="2" height="10" rx="1" transform="translate(846 747)" fill="#030308"/>
    <rect id="Rectangle_852" data-name="Rectangle 852" width="2" height="10" rx="1" transform="translate(942 747)" fill="#afafaf"/>
    <rect id="Rectangle_837" data-name="Rectangle 837" width="2" height="10" rx="1" transform="translate(894 747)" fill="#afafaf"/>
    <rect id="Rectangle_850" data-name="Rectangle 850" width="2" height="10" rx="1" transform="translate(990 747)" fill="#afafaf"/>
    <rect id="Rectangle_827-10" data-name="Rectangle 827" width="2" height="20" rx="1" transform="translate(850 742)" fill="#030308"/>
    <rect id="Rectangle_853" data-name="Rectangle 853" width="2" height="20" rx="1" transform="translate(946 742)" fill="#afafaf"/>
    <rect id="Rectangle_829" data-name="Rectangle 829" width="2" height="20" rx="1" transform="translate(898 742)" fill="#afafaf"/>
    <rect id="Rectangle_851" data-name="Rectangle 851" width="2" height="20" rx="1" transform="translate(994 742)" fill="#afafaf"/>
    <rect id="Rectangle_827-11" data-name="Rectangle 827" width="2" height="3" rx="1" transform="translate(854 751)" fill="#030308"/>
    <rect id="Rectangle_854" data-name="Rectangle 854" width="2" height="3" rx="1" transform="translate(950 751)" fill="#afafaf"/>
    <rect id="Rectangle_838" data-name="Rectangle 838" width="2" height="3" rx="1" transform="translate(902 751)" fill="#afafaf"/>
    <rect id="Rectangle_840" data-name="Rectangle 840" width="2" height="3" rx="1" transform="translate(998 751)" fill="#afafaf"/>
    <rect id="Rectangle_827-12" data-name="Rectangle 827" width="2" height="12" rx="1" transform="translate(858 746)" fill="#030308"/>
    <rect id="Rectangle_855" data-name="Rectangle 855" width="2" height="12" rx="1" transform="translate(954 746)" fill="#afafaf"/>
    <rect id="Rectangle_828" data-name="Rectangle 828" width="2" height="12" rx="1" transform="translate(906 746)" fill="#afafaf"/>
    <rect id="Rectangle_841" data-name="Rectangle 841" width="2" height="12" rx="1" transform="translate(1002 746)" fill="#afafaf"/>
  </g>
</svg>
