<svg xmlns="http://www.w3.org/2000/svg" width="70" height="70" viewBox="0 0 70 70">
  <g id="Group_2577" data-name="Group 2577" transform="translate(-265 -130)">
    <circle id="Ellipse_259" data-name="Ellipse 259" cx="35" cy="35" r="35" transform="translate(265 130)" fill="#00b152"/>
    <g id="check" transform="translate(287 85.427)">
      <path id="Path_1445" data-name="Path 1445" d="M8.395,89.342a2.778,2.778,0,0,1-1.967-.815L.48,82.581a1.639,1.639,0,0,1,0-2.318h0a1.639,1.639,0,0,1,2.318,0l5.6,5.6L23.2,71.053a1.639,1.639,0,0,1,2.318,0h0a1.639,1.639,0,0,1,0,2.318L10.362,88.527A2.778,2.778,0,0,1,8.395,89.342Z" transform="translate(0 0)" fill="#fff"/>
    </g>
  </g>
</svg>
