<svg xmlns="http://www.w3.org/2000/svg" width="30" height="27.639" viewBox="0 0 30 27.639">
  <path id="cloud-upload" d="M22.98,8.994a1.41,1.41,0,0,1-.939-.935h0A10,10,0,1,0,3.167,14.6a1.307,1.307,0,0,1-.389,1.547,6.875,6.875,0,0,0-2.707,6.5A7.027,7.027,0,0,0,7.1,28.527H17.5V19.045l-1.616,1.616a1.25,1.25,0,1,1-1.768-1.768L16.1,16.911a3.75,3.75,0,0,1,5.3,0l1.982,1.982a1.25,1.25,0,1,1-1.768,1.768L20,19.045v9.466a10.226,10.226,0,0,0,9.963-9.136A9.955,9.955,0,0,0,22.98,8.994Z" transform="translate(-0.001 -0.889)" fill="#030308"/>
</svg>
