<svg id="expand" xmlns="http://www.w3.org/2000/svg" width="20" height="20" viewBox="0 0 20 20">
  <path id="Path_1249" data-name="Path 1249" d="M21.352,15.5A1.254,1.254,0,0,0,20.1,16.754v1.254a2.09,2.09,0,0,1-2.09,2.09H16.754a1.254,1.254,0,1,0,0,2.508h1.254a4.6,4.6,0,0,0,4.6-4.6V16.754A1.254,1.254,0,0,0,21.352,15.5Z" transform="translate(-2.607 -2.607)" fill="#fff"/>
  <path id="Path_1250" data-name="Path 1250" d="M5.852,0H4.6A4.6,4.6,0,0,0,0,4.6V5.852a1.254,1.254,0,1,0,2.508,0V4.6A2.09,2.09,0,0,1,4.6,2.508H5.852A1.254,1.254,0,1,0,5.852,0Z" transform="translate(0)" fill="#fff"/>
  <path id="Path_1251" data-name="Path 1251" d="M5.852,20.1H4.6a2.09,2.09,0,0,1-2.09-2.09V16.754a1.254,1.254,0,0,0-2.508,0v1.254a4.6,4.6,0,0,0,4.6,4.6H5.852a1.254,1.254,0,0,0,0-2.508Z" transform="translate(0 -2.607)" fill="#fff"/>
  <path id="Path_1252" data-name="Path 1252" d="M18.008,0H16.754a1.254,1.254,0,0,0,0,2.508h1.254A2.09,2.09,0,0,1,20.1,4.6V5.852a1.254,1.254,0,1,0,2.508,0V4.6A4.6,4.6,0,0,0,18.008,0Z" transform="translate(-2.607)" fill="#fff"/>
</svg>
