<svg xmlns="http://www.w3.org/2000/svg" width="15" height="20" viewBox="0 0 15 20">
  <path id="Icon_awesome-hand-point-down" data-name="Icon awesome-hand-point-down" d="M3.587,18.25V12.421a5.308,5.308,0,0,1-.973.553A1.876,1.876,0,0,1,0,11.25,1.665,1.665,0,0,1,1.136,9.687c1.1-.474,2.513-3.072,3.02-4.2A1.875,1.875,0,0,1,5.87,4.375h6.7a.936.936,0,0,1,.926.792C13.779,7,15,7.579,14.992,10c0,.106.008.518.008.625,0,1.979-.864,3.186-2.784,2.836a1.789,1.789,0,0,1-2.434.643,1.921,1.921,0,0,1-2.771.246v3.9A1.761,1.761,0,0,1,5.3,20a1.79,1.79,0,0,1-1.712-1.75ZM4.375,2.812V.938A.937.937,0,0,1,5.312,0h7.5a.937.937,0,0,1,.938.938V2.812a.937.937,0,0,1-.937.938h-7.5A.937.937,0,0,1,4.375,2.812Zm8.281-.937a.781.781,0,1,0-.781.781A.781.781,0,0,0,12.656,1.875Z" fill="#ef9f09"/>
</svg>
