<svg xmlns="http://www.w3.org/2000/svg" width="14" height="13.957" viewBox="0 0 14 13.957">
  <path id="Path_1230" data-name="Path 1230" d="M704.358,477.706c.028-.691.062-1.382.083-2.074a2.964,2.964,0,0,1,2.866-2.868c1.249-.04,2.5-.093,3.747-.147a3.465,3.465,0,0,1,2.647,1q1.8,1.742,3.546,3.537a3.556,3.556,0,0,1-.044,5.066q-1.621,1.631-3.256,3.248a3.608,3.608,0,0,1-5.188.008q-1.7-1.678-3.383-3.374a3.473,3.473,0,0,1-1.083-2.781c.035-.537.043-1.075.063-1.613Zm5.04,2.179a2.195,2.195,0,1,0-2.22-2.124A2.207,2.207,0,0,0,709.4,479.885Z" transform="translate(-704.285 -472.613)" fill="#898989"/>
</svg>
