<svg xmlns="http://www.w3.org/2000/svg" width="14" height="16" viewBox="0 0 14 16">
  <g id="trash" transform="translate(-42.667)">
    <path id="Path_1231" data-name="Path 1231" d="M55.967,2.667H53.8A3.469,3.469,0,0,0,50.367,0h-1.4a3.469,3.469,0,0,0-3.43,2.667h-2.17a.684.684,0,0,0-.7.667.684.684,0,0,0,.7.667h.7v8.667A3.424,3.424,0,0,0,47.567,16h4.2a3.424,3.424,0,0,0,3.5-3.333V4h.7a.684.684,0,0,0,.7-.667A.684.684,0,0,0,55.967,2.667Zm-7,8.667a.7.7,0,0,1-1.4,0v-4a.7.7,0,0,1,1.4,0v4Zm2.8,0a.7.7,0,0,1-1.4,0v-4a.7.7,0,0,1,1.4,0Zm-4.78-8.667a2.1,2.1,0,0,1,1.98-1.333h1.4a2.1,2.1,0,0,1,1.98,1.333Z" fill="#898989"/>
  </g>
</svg>
