<svg xmlns="http://www.w3.org/2000/svg" width="14" height="12.355" viewBox="0 0 14 12.355">
  <g id="shuffle" transform="translate(-0.003 -1.414)">
    <path id="Path_1255" data-name="Path 1255" d="M10.744,5.2v.984a.583.583,0,0,0,1,.413L13.832,4.5a.584.584,0,0,0,0-.825L11.74,1.585a.583.583,0,0,0-1,.413V3.4A8.2,8.2,0,0,0,6.363,6.264a8.007,8.007,0,0,0-5.294-3c-.027-.006-.181-.023-.193-.023A.875.875,0,0,0,.8,4.989h0a6.389,6.389,0,0,1,4.4,2.6A6.38,6.38,0,0,1,.8,10.194h0A.875.875,0,0,0,.876,11.94a.3.3,0,0,0,.065,0h0c3.051-.26,4.689-2.154,6.147-3.842A8.192,8.192,0,0,1,10.744,5.2Z" transform="translate(0)"/>
    <path id="Path_1256" data-name="Path 1256" d="M16.948,13.585a.583.583,0,0,0-1,.412v.991a5.355,5.355,0,0,1-2.012-1.166.855.855,0,0,0-1.2.092l-.015.016a.869.869,0,0,0,.1,1.231,6.982,6.982,0,0,0,3.133,1.626v1.394a.583.583,0,0,0,1,.412l2.09-2.09a.583.583,0,0,0,0-.824Z" transform="translate(-5.206 -4.995)"/>
  </g>
</svg>
