<svg xmlns="http://www.w3.org/2000/svg" width="14" height="14" viewBox="0 0 14 14">
  <path id="Icon_awesome-question-circle" data-name="Icon awesome-question-circle" d="M14.563,7.563a7,7,0,1,1-7-7A7,7,0,0,1,14.563,7.563ZM7.75,2.877a3.656,3.656,0,0,0-3.29,1.8.339.339,0,0,0,.077.459l.979.743a.339.339,0,0,0,.47-.06c.5-.64.85-1.01,1.617-1.01.577,0,1.29.371,1.29.93,0,.423-.349.64-.918.959-.664.372-1.543.835-1.543,1.994V8.8a.339.339,0,0,0,.339.339H8.353A.339.339,0,0,0,8.692,8.8V8.767c0-.8,2.348-.837,2.348-3.011A3.22,3.22,0,0,0,7.75,2.877Zm-.188,7a1.3,1.3,0,1,0,1.3,1.3A1.3,1.3,0,0,0,7.563,9.877Z" transform="translate(-0.563 -0.563)" fill="#4d4d4d"/>
</svg>
