<svg xmlns="http://www.w3.org/2000/svg" width="14.012" height="18" viewBox="0 0 14.012 18">
  <g id="Group_2293" data-name="Group 2293" transform="translate(-809.622 -524.872)">
    <path id="Path_1240" data-name="Path 1240" d="M817.036,537.369a4,4,0,0,0,3.545-4.035q0-1.1,0-2.193,0-1.117,0-2.235a4.235,4.235,0,0,0-.123-1.021,3.951,3.951,0,0,0-7.784,1.083q0,2.181,0,4.364a4.672,4.672,0,0,0,.08.859A4,4,0,0,0,817.036,537.369Zm.769-6.328a.488.488,0,0,1-.511.4,2.8,2.8,0,0,1-.5-.048,2.381,2.381,0,0,0-.793.048.509.509,0,0,1-.3-.973,2.324,2.324,0,0,1,.322-.091,1.911,1.911,0,0,1,.5-.05,2.373,2.373,0,0,1,.923.165A.482.482,0,0,1,817.8,531.041Zm-2.992-1.789a.528.528,0,0,1,.356-.428,4.27,4.27,0,0,1,1.331-.178,6.047,6.047,0,0,1,1.507.224.356.356,0,0,1,.212.554.622.622,0,0,1-.739.294,2.5,2.5,0,0,0-1.9.015C815.3,529.847,814.725,529.568,814.813,529.252Z" fill="#898989"/>
    <path id="Path_1241" data-name="Path 1241" d="M823.626,532.968c0-.414.01-.765,0-1.116a.6.6,0,0,0-.623-.583.6.6,0,0,0-.612.571c-.018.456-.009.913-.011,1.369a6.227,6.227,0,0,1-.151,1.421,5.721,5.721,0,0,1-8.467,3.672,5.628,5.628,0,0,1-2.878-5.035c-.008-.478.008-.956-.011-1.433a.6.6,0,0,0-.619-.565.588.588,0,0,0-.613.568,16.076,16.076,0,0,0,.08,2.65,7.03,7.03,0,0,0,6.113,5.845c.133.015.173.058.171.193-.008.555-.006,1.11,0,1.665a.632.632,0,1,0,1.259-.008c0-.484,0-.969,0-1.454,0-.357,0-.351.346-.4a6.8,6.8,0,0,0,5.168-3.588A6.993,6.993,0,0,0,823.626,532.968Z" fill="#898989"/>
  </g>
</svg>
