<svg xmlns="http://www.w3.org/2000/svg" width="18" height="18" viewBox="0 0 18 18">
  <g id="Group_2291" data-name="Group 2291" transform="translate(-789.89 -371.385)">
    <path id="Path_1236" data-name="Path 1236" d="M804.465,441.244h-8.918a3.793,3.793,0,0,1-3.788-3.789v-8.47a.934.934,0,1,0-1.869,0v8.47a5.658,5.658,0,0,0,5.657,5.659h8.918a.935.935,0,0,0,0-1.87Z" transform="translate(0 -53.729)" fill="#898989"/>
    <path id="Path_1237" data-name="Path 1237" d="M861.047,371.385h-7.963a3.471,3.471,0,0,0-3.471,3.471v7.964a3.471,3.471,0,0,0,3.471,3.471h7.963a3.471,3.471,0,0,0,3.471-3.471v-7.964A3.471,3.471,0,0,0,861.047,371.385Zm-2.3,8.094-1.327.97-1.327.97a.715.715,0,0,1-1.073-.642V376.9a.715.715,0,0,1,1.073-.642l1.327.97,1.327.97A.755.755,0,0,1,858.75,379.479Z" transform="translate(-56.628)" fill="#898989"/>
  </g>
</svg>
