<svg xmlns="http://www.w3.org/2000/svg" width="13.333" height="16" viewBox="0 0 13.333 16">
  <path id="document" d="M10,4.667V.307a4.651,4.651,0,0,1,1.643,1.06l2.323,2.324a4.636,4.636,0,0,1,1.061,1.643h-4.36A.667.667,0,0,1,10,4.667ZM15.333,6.99v5.677A3.337,3.337,0,0,1,12,16H5.333A3.337,3.337,0,0,1,2,12.667V3.333A3.337,3.337,0,0,1,5.333,0h3.01c.109,0,.216.009.323.016V4.667a2,2,0,0,0,2,2h4.651c.007.107.016.215.016.323ZM10,12.667A.667.667,0,0,0,9.333,12H6a.667.667,0,0,0,0,1.333H9.333A.667.667,0,0,0,10,12.667ZM12,10a.667.667,0,0,0-.667-.667H6a.667.667,0,0,0,0,1.333h5.333A.667.667,0,0,0,12,10Z" transform="translate(-2)" fill="#1b83fb"/>
</svg>
