<svg xmlns="http://www.w3.org/2000/svg" width="18" height="16.5" viewBox="0 0 18 16.5">
  <g id="envelope" transform="translate(0 -1)">
    <path id="Path_1455" data-name="Path 1455" d="M17.965,5.542l-6.313,6.313a3.755,3.755,0,0,1-5.3,0L.034,5.542C.024,5.661,0,5.768,0,5.885v9a3.754,3.754,0,0,0,3.75,3.75h10.5A3.754,3.754,0,0,0,18,14.886v-9C18,5.768,17.976,5.661,17.965,5.542Z" transform="translate(0 -1.135)" fill="#00b152"/>
    <path id="Path_1456" data-name="Path 1456" d="M10.778,9.66l6.85-6.851A3.739,3.739,0,0,0,14.436,1H3.936A3.74,3.74,0,0,0,.744,2.808L7.595,9.66a2.255,2.255,0,0,0,3.183,0Z" transform="translate(-0.186)" fill="#00b152"/>
  </g>
</svg>
