<svg xmlns="http://www.w3.org/2000/svg" width="17.999" height="17.961" viewBox="0 0 17.999 17.961">
  <g id="link" transform="translate(-0.001 -0.541)">
    <path id="Path_1457" data-name="Path 1457" d="M7.807,182.31a3.294,3.294,0,0,1-4.458.262,3.182,3.182,0,0,1-1.08-2.753,3.384,3.384,0,0,1,1.015-2.01l2.157-2.159a1.125,1.125,0,0,0,0-1.591h0a1.125,1.125,0,0,0-1.591,0l-2.112,2.112a5.721,5.721,0,0,0-1.716,3.493,5.443,5.443,0,0,0,9.266,4.345l2.256-2.256a1.125,1.125,0,0,0,0-1.591h0a1.125,1.125,0,0,0-1.591,0Z" transform="translate(0 -167.098)" fill="#fe7d13"/>
    <path id="Path_1458" data-name="Path 1458" d="M184.04,1.622a5.569,5.569,0,0,0-7.289.6l-2.124,2.124a1.125,1.125,0,0,0,0,1.591h0a1.125,1.125,0,0,0,1.591,0l2.157-2.155a3.288,3.288,0,0,1,4.375-.315,3.2,3.2,0,0,1,.445,4.5q-.1.12-.208.23l-2.256,2.256a1.125,1.125,0,0,0,0,1.591h0a1.125,1.125,0,0,0,1.591,0l2.256-2.256a5.448,5.448,0,0,0-.539-8.167Z" transform="translate(-168.169 0)" fill="#fe7d13"/>
    <path id="Path_1459" data-name="Path 1459" d="M174.624,177.553l3.5-3.5a1.125,1.125,0,0,1,1.591,0h0a1.125,1.125,0,0,1,0,1.591l-3.5,3.5a1.125,1.125,0,0,1-1.591,0h0A1.125,1.125,0,0,1,174.624,177.553Z" transform="translate(-168.165 -167.096)" fill="#fe7d13"/>
  </g>
</svg>
