<svg xmlns="http://www.w3.org/2000/svg" width="30" height="25.493" viewBox="0 0 30 25.493">
  <path id="Path_1232" data-name="Path 1232" d="M636.239,407.042c.816-.554,1.6-1.066,2.367-1.612a3.118,3.118,0,0,1,3.419-.38,3.192,3.192,0,0,1,1.713,2.615,6.553,6.553,0,0,1,.065,1.054q0,4.981,0,9.962a4.869,4.869,0,0,1-.338,1.933,2.689,2.689,0,0,1-3.324,1.59,5.909,5.909,0,0,1-1.648-.794c-.69-.457-1.377-.917-2.1-1.4a18.5,18.5,0,0,1-.224,1.938,4.635,4.635,0,0,1-3.319,3.9,9.49,9.49,0,0,1-2.04.366c-1.068.084-2.137.051-3.206.053q-3.344.006-6.687,0a7.589,7.589,0,0,1-4.021-.97,6.349,6.349,0,0,1-2.972-4.631A9.752,9.752,0,0,1,613.8,419q0-5.6,0-11.191a13.072,13.072,0,0,1,.306-3.079,4.67,4.67,0,0,1,3.865-3.7,12.954,12.954,0,0,1,2.711-.251q4.333-.009,8.666,0a12.434,12.434,0,0,1,2.841.294,4.786,4.786,0,0,1,3.834,4.1A15.875,15.875,0,0,1,636.239,407.042Zm-6.278,2.788a2.764,2.764,0,1,0-2.793,2.736A2.759,2.759,0,0,0,629.961,409.83Z" transform="translate(-613.803 -400.773)" fill="#6551f2"/>
</svg>
